<mxfile host="app.diagrams.net" modified="2023-07-25T17:38:50.036Z" agent="Mozilla/5.0 (Windows NT 10.0; Win64; x64) AppleWebKit/537.36 (KHTML, like Gecko) Chrome/115.0.0.0 Safari/537.36" etag="nATaQfTYJvjhRauujXFu" version="21.6.5" type="device" pages="6">
  <diagram name="Página-1" id="TBmFpAaWSDi-_OBAax6-">
    <mxGraphModel dx="1050" dy="574" grid="1" gridSize="10" guides="1" tooltips="1" connect="1" arrows="1" fold="1" page="1" pageScale="1" pageWidth="827" pageHeight="1169" math="0" shadow="0">
      <root>
        <mxCell id="0" />
        <mxCell id="1" parent="0" />
        <mxCell id="Hg-nCL7Aqa3pKAlX4HZJ-17" style="edgeStyle=orthogonalEdgeStyle;rounded=0;orthogonalLoop=1;jettySize=auto;html=1;entryX=0;entryY=0.5;entryDx=0;entryDy=0;endArrow=none;endFill=0;" parent="1" source="Hg-nCL7Aqa3pKAlX4HZJ-1" target="Hg-nCL7Aqa3pKAlX4HZJ-14" edge="1">
          <mxGeometry relative="1" as="geometry" />
        </mxCell>
        <mxCell id="Hg-nCL7Aqa3pKAlX4HZJ-18" style="edgeStyle=orthogonalEdgeStyle;rounded=0;orthogonalLoop=1;jettySize=auto;html=1;entryX=0;entryY=0.5;entryDx=0;entryDy=0;endArrow=none;endFill=0;" parent="1" source="Hg-nCL7Aqa3pKAlX4HZJ-1" target="Hg-nCL7Aqa3pKAlX4HZJ-15" edge="1">
          <mxGeometry relative="1" as="geometry" />
        </mxCell>
        <mxCell id="Hg-nCL7Aqa3pKAlX4HZJ-1" value="Filme" style="rounded=0;whiteSpace=wrap;html=1;" parent="1" vertex="1">
          <mxGeometry x="300" y="180" width="120" height="50" as="geometry" />
        </mxCell>
        <mxCell id="Hg-nCL7Aqa3pKAlX4HZJ-5" style="edgeStyle=orthogonalEdgeStyle;rounded=0;orthogonalLoop=1;jettySize=auto;html=1;entryX=0.5;entryY=1;entryDx=0;entryDy=0;endArrow=none;endFill=0;" parent="1" source="Hg-nCL7Aqa3pKAlX4HZJ-2" target="Hg-nCL7Aqa3pKAlX4HZJ-3" edge="1">
          <mxGeometry relative="1" as="geometry" />
        </mxCell>
        <mxCell id="Hg-nCL7Aqa3pKAlX4HZJ-22" style="edgeStyle=orthogonalEdgeStyle;rounded=0;orthogonalLoop=1;jettySize=auto;html=1;entryX=0;entryY=0.5;entryDx=0;entryDy=0;endArrow=none;endFill=0;" parent="1" source="Hg-nCL7Aqa3pKAlX4HZJ-2" target="Hg-nCL7Aqa3pKAlX4HZJ-16" edge="1">
          <mxGeometry relative="1" as="geometry" />
        </mxCell>
        <mxCell id="Hg-nCL7Aqa3pKAlX4HZJ-2" value="Gênero" style="rounded=0;whiteSpace=wrap;html=1;" parent="1" vertex="1">
          <mxGeometry x="300" y="380" width="120" height="50" as="geometry" />
        </mxCell>
        <mxCell id="Hg-nCL7Aqa3pKAlX4HZJ-4" style="edgeStyle=orthogonalEdgeStyle;rounded=0;orthogonalLoop=1;jettySize=auto;html=1;entryX=0.5;entryY=1;entryDx=0;entryDy=0;endArrow=none;endFill=0;" parent="1" source="Hg-nCL7Aqa3pKAlX4HZJ-3" target="Hg-nCL7Aqa3pKAlX4HZJ-1" edge="1">
          <mxGeometry relative="1" as="geometry" />
        </mxCell>
        <mxCell id="Hg-nCL7Aqa3pKAlX4HZJ-3" value="Possui" style="rhombus;whiteSpace=wrap;html=1;" parent="1" vertex="1">
          <mxGeometry x="320" y="270" width="80" height="80" as="geometry" />
        </mxCell>
        <mxCell id="Hg-nCL7Aqa3pKAlX4HZJ-7" value="1" style="text;html=1;align=center;verticalAlign=middle;resizable=0;points=[];autosize=1;strokeColor=none;fillColor=none;" parent="1" vertex="1">
          <mxGeometry x="360" y="350" width="30" height="30" as="geometry" />
        </mxCell>
        <mxCell id="Hg-nCL7Aqa3pKAlX4HZJ-8" value="N" style="text;html=1;align=center;verticalAlign=middle;resizable=0;points=[];autosize=1;strokeColor=none;fillColor=none;" parent="1" vertex="1">
          <mxGeometry x="360" y="230" width="30" height="30" as="geometry" />
        </mxCell>
        <mxCell id="Hg-nCL7Aqa3pKAlX4HZJ-14" value="Lançamento" style="ellipse;whiteSpace=wrap;html=1;" parent="1" vertex="1">
          <mxGeometry x="460" y="165" width="80" height="30" as="geometry" />
        </mxCell>
        <mxCell id="Hg-nCL7Aqa3pKAlX4HZJ-15" value="Duração" style="ellipse;whiteSpace=wrap;html=1;" parent="1" vertex="1">
          <mxGeometry x="460" y="210" width="80" height="30" as="geometry" />
        </mxCell>
        <mxCell id="Hg-nCL7Aqa3pKAlX4HZJ-16" value="Nome" style="ellipse;whiteSpace=wrap;html=1;" parent="1" vertex="1">
          <mxGeometry x="460" y="390" width="80" height="30" as="geometry" />
        </mxCell>
      </root>
    </mxGraphModel>
  </diagram>
  <diagram id="XJe55JzhflxTuA4YCix1" name="Página-2">
    <mxGraphModel dx="1050" dy="574" grid="1" gridSize="10" guides="1" tooltips="1" connect="1" arrows="1" fold="1" page="1" pageScale="1" pageWidth="827" pageHeight="1169" math="0" shadow="0">
      <root>
        <mxCell id="0" />
        <mxCell id="1" parent="0" />
        <mxCell id="kq-7RuR9Lt1fRURpbFly-2" value="Construa a modelagem que represente pessoas e seus dados, observando que:&#xa;&#xa;&#xa;- uma pessoa pode ter vários telefones e vários emails, porém, pode possuir somente uma CNH." style="text;whiteSpace=wrap;" parent="1" vertex="1">
          <mxGeometry x="120" y="110" width="560" height="80" as="geometry" />
        </mxCell>
        <mxCell id="AMCVKhYzV45og9IrvVqv-14" style="edgeStyle=orthogonalEdgeStyle;rounded=0;orthogonalLoop=1;jettySize=auto;html=1;endArrow=none;endFill=0;" parent="1" source="kq-7RuR9Lt1fRURpbFly-3" target="AMCVKhYzV45og9IrvVqv-1" edge="1">
          <mxGeometry relative="1" as="geometry" />
        </mxCell>
        <mxCell id="kq-7RuR9Lt1fRURpbFly-3" value="Pessoa" style="rounded=0;whiteSpace=wrap;html=1;" parent="1" vertex="1">
          <mxGeometry x="200" y="330" width="110" height="40" as="geometry" />
        </mxCell>
        <mxCell id="AMCVKhYzV45og9IrvVqv-1" value="Possui" style="rhombus;whiteSpace=wrap;html=1;" parent="1" vertex="1">
          <mxGeometry x="370" y="320" width="60" height="60" as="geometry" />
        </mxCell>
        <mxCell id="AMCVKhYzV45og9IrvVqv-15" style="edgeStyle=orthogonalEdgeStyle;rounded=0;orthogonalLoop=1;jettySize=auto;html=1;entryX=1;entryY=0.5;entryDx=0;entryDy=0;endArrow=none;endFill=0;" parent="1" source="AMCVKhYzV45og9IrvVqv-2" target="AMCVKhYzV45og9IrvVqv-1" edge="1">
          <mxGeometry relative="1" as="geometry" />
        </mxCell>
        <mxCell id="AMCVKhYzV45og9IrvVqv-2" value="Email" style="rounded=0;whiteSpace=wrap;html=1;" parent="1" vertex="1">
          <mxGeometry x="490" y="270" width="110" height="40" as="geometry" />
        </mxCell>
        <mxCell id="AMCVKhYzV45og9IrvVqv-27" style="edgeStyle=orthogonalEdgeStyle;rounded=0;orthogonalLoop=1;jettySize=auto;html=1;endArrow=none;endFill=0;" parent="1" source="AMCVKhYzV45og9IrvVqv-6" target="AMCVKhYzV45og9IrvVqv-1" edge="1">
          <mxGeometry relative="1" as="geometry" />
        </mxCell>
        <mxCell id="AMCVKhYzV45og9IrvVqv-6" value="Telefone" style="rounded=0;whiteSpace=wrap;html=1;" parent="1" vertex="1">
          <mxGeometry x="490" y="330" width="110" height="40" as="geometry" />
        </mxCell>
        <mxCell id="AMCVKhYzV45og9IrvVqv-28" style="edgeStyle=orthogonalEdgeStyle;rounded=0;orthogonalLoop=1;jettySize=auto;html=1;entryX=1;entryY=0.5;entryDx=0;entryDy=0;endArrow=none;endFill=0;" parent="1" source="AMCVKhYzV45og9IrvVqv-11" target="AMCVKhYzV45og9IrvVqv-1" edge="1">
          <mxGeometry relative="1" as="geometry" />
        </mxCell>
        <mxCell id="AMCVKhYzV45og9IrvVqv-11" value="CNH" style="rounded=0;whiteSpace=wrap;html=1;" parent="1" vertex="1">
          <mxGeometry x="490" y="390" width="110" height="40" as="geometry" />
        </mxCell>
        <mxCell id="AMCVKhYzV45og9IrvVqv-19" value="1" style="text;html=1;align=center;verticalAlign=middle;resizable=0;points=[];autosize=1;strokeColor=none;fillColor=none;" parent="1" vertex="1">
          <mxGeometry x="460" y="380" width="30" height="30" as="geometry" />
        </mxCell>
        <mxCell id="AMCVKhYzV45og9IrvVqv-24" value="N" style="text;html=1;align=center;verticalAlign=middle;resizable=0;points=[];autosize=1;strokeColor=none;fillColor=none;" parent="1" vertex="1">
          <mxGeometry x="460" y="260" width="30" height="30" as="geometry" />
        </mxCell>
        <mxCell id="AMCVKhYzV45og9IrvVqv-25" value="N" style="text;html=1;align=center;verticalAlign=middle;resizable=0;points=[];autosize=1;strokeColor=none;fillColor=none;" parent="1" vertex="1">
          <mxGeometry x="460" y="320" width="30" height="30" as="geometry" />
        </mxCell>
        <mxCell id="8FOwIRS3pWZU-AQ_FN1g-1" value="1" style="text;html=1;align=center;verticalAlign=middle;resizable=0;points=[];autosize=1;strokeColor=none;fillColor=none;" vertex="1" parent="1">
          <mxGeometry x="310" y="320" width="30" height="30" as="geometry" />
        </mxCell>
      </root>
    </mxGraphModel>
  </diagram>
  <diagram id="p6LnXSpt6EK1yV5bPUQj" name="Página-3">
    <mxGraphModel dx="600" dy="328" grid="1" gridSize="10" guides="1" tooltips="1" connect="1" arrows="1" fold="1" page="1" pageScale="1" pageWidth="827" pageHeight="1169" math="0" shadow="0">
      <root>
        <mxCell id="0" />
        <mxCell id="1" parent="0" />
        <mxCell id="T9ShqIcpksWyyy1rSW77-1" value="Construa o Modelo Entidade Relacionamento considerando o seguinte cenário:&#xa;&#xa;&#xa;- uma empresa possui vários veículos&#xa;- um veículo possui marca(gm, ford, fiat), modelo(onix, fiesta, argo) e placa&#xa;- um cliente (cpf, nome) aluga um ou mais veículos" style="text;whiteSpace=wrap;" vertex="1" parent="1">
          <mxGeometry x="184" y="80" width="460" height="110" as="geometry" />
        </mxCell>
        <mxCell id="T9ShqIcpksWyyy1rSW77-5" style="edgeStyle=orthogonalEdgeStyle;rounded=0;orthogonalLoop=1;jettySize=auto;html=1;entryX=0;entryY=0.5;entryDx=0;entryDy=0;endArrow=none;endFill=0;" edge="1" parent="1" source="T9ShqIcpksWyyy1rSW77-2" target="T9ShqIcpksWyyy1rSW77-3">
          <mxGeometry relative="1" as="geometry" />
        </mxCell>
        <mxCell id="T9ShqIcpksWyyy1rSW77-2" value="Empresa" style="rounded=0;whiteSpace=wrap;html=1;" vertex="1" parent="1">
          <mxGeometry x="160" y="260" width="100" height="40" as="geometry" />
        </mxCell>
        <mxCell id="T9ShqIcpksWyyy1rSW77-3" value="Possui" style="rhombus;whiteSpace=wrap;html=1;" vertex="1" parent="1">
          <mxGeometry x="290" y="252.5" width="60" height="55" as="geometry" />
        </mxCell>
        <mxCell id="T9ShqIcpksWyyy1rSW77-6" style="edgeStyle=orthogonalEdgeStyle;rounded=0;orthogonalLoop=1;jettySize=auto;html=1;entryX=1;entryY=0.5;entryDx=0;entryDy=0;endArrow=none;endFill=0;" edge="1" parent="1" source="T9ShqIcpksWyyy1rSW77-4" target="T9ShqIcpksWyyy1rSW77-3">
          <mxGeometry relative="1" as="geometry" />
        </mxCell>
        <mxCell id="T9ShqIcpksWyyy1rSW77-28" style="edgeStyle=orthogonalEdgeStyle;rounded=0;orthogonalLoop=1;jettySize=auto;html=1;entryX=0;entryY=0.5;entryDx=0;entryDy=0;endArrow=none;endFill=0;" edge="1" parent="1" source="T9ShqIcpksWyyy1rSW77-4" target="T9ShqIcpksWyyy1rSW77-25">
          <mxGeometry relative="1" as="geometry" />
        </mxCell>
        <mxCell id="T9ShqIcpksWyyy1rSW77-4" value="Veículos" style="rounded=0;whiteSpace=wrap;html=1;" vertex="1" parent="1">
          <mxGeometry x="380" y="260" width="100" height="40" as="geometry" />
        </mxCell>
        <mxCell id="T9ShqIcpksWyyy1rSW77-7" value="1" style="text;html=1;align=center;verticalAlign=middle;resizable=0;points=[];autosize=1;strokeColor=none;fillColor=none;" vertex="1" parent="1">
          <mxGeometry x="260" y="252.5" width="30" height="30" as="geometry" />
        </mxCell>
        <mxCell id="T9ShqIcpksWyyy1rSW77-8" value="N" style="text;html=1;align=center;verticalAlign=middle;resizable=0;points=[];autosize=1;strokeColor=none;fillColor=none;" vertex="1" parent="1">
          <mxGeometry x="350" y="252.5" width="30" height="30" as="geometry" />
        </mxCell>
        <mxCell id="T9ShqIcpksWyyy1rSW77-25" value="Marca" style="ellipse;whiteSpace=wrap;html=1;" vertex="1" parent="1">
          <mxGeometry x="520" y="222.5" width="80" height="30" as="geometry" />
        </mxCell>
        <mxCell id="T9ShqIcpksWyyy1rSW77-29" style="edgeStyle=orthogonalEdgeStyle;rounded=0;orthogonalLoop=1;jettySize=auto;html=1;endArrow=none;endFill=0;" edge="1" parent="1" source="T9ShqIcpksWyyy1rSW77-26">
          <mxGeometry relative="1" as="geometry">
            <mxPoint x="480" y="280" as="targetPoint" />
          </mxGeometry>
        </mxCell>
        <mxCell id="T9ShqIcpksWyyy1rSW77-26" value="Modelo" style="ellipse;whiteSpace=wrap;html=1;" vertex="1" parent="1">
          <mxGeometry x="520" y="265" width="80" height="30" as="geometry" />
        </mxCell>
        <mxCell id="T9ShqIcpksWyyy1rSW77-30" style="edgeStyle=orthogonalEdgeStyle;rounded=0;orthogonalLoop=1;jettySize=auto;html=1;endArrow=none;endFill=0;" edge="1" parent="1" source="T9ShqIcpksWyyy1rSW77-27">
          <mxGeometry relative="1" as="geometry">
            <mxPoint x="500" y="280" as="targetPoint" />
          </mxGeometry>
        </mxCell>
        <mxCell id="T9ShqIcpksWyyy1rSW77-27" value="Placa" style="ellipse;whiteSpace=wrap;html=1;" vertex="1" parent="1">
          <mxGeometry x="520" y="307.5" width="80" height="30" as="geometry" />
        </mxCell>
        <mxCell id="kmDP1EbydoE8uJEdHsap-9" style="edgeStyle=orthogonalEdgeStyle;rounded=0;orthogonalLoop=1;jettySize=auto;html=1;entryX=1;entryY=0.5;entryDx=0;entryDy=0;endArrow=none;endFill=0;" edge="1" parent="1" source="kmDP1EbydoE8uJEdHsap-1" target="kmDP1EbydoE8uJEdHsap-7">
          <mxGeometry relative="1" as="geometry" />
        </mxCell>
        <mxCell id="kmDP1EbydoE8uJEdHsap-1" value="Cliente" style="rounded=0;whiteSpace=wrap;html=1;" vertex="1" parent="1">
          <mxGeometry x="250" y="360" width="100" height="40" as="geometry" />
        </mxCell>
        <mxCell id="kmDP1EbydoE8uJEdHsap-3" style="edgeStyle=orthogonalEdgeStyle;rounded=0;orthogonalLoop=1;jettySize=auto;html=1;entryX=1;entryY=0.5;entryDx=0;entryDy=0;endArrow=none;endFill=0;" edge="1" parent="1" source="kmDP1EbydoE8uJEdHsap-2" target="kmDP1EbydoE8uJEdHsap-1">
          <mxGeometry relative="1" as="geometry" />
        </mxCell>
        <mxCell id="kmDP1EbydoE8uJEdHsap-5" style="edgeStyle=orthogonalEdgeStyle;rounded=0;orthogonalLoop=1;jettySize=auto;html=1;entryX=0.5;entryY=1;entryDx=0;entryDy=0;endArrow=none;endFill=0;" edge="1" parent="1" source="kmDP1EbydoE8uJEdHsap-2" target="T9ShqIcpksWyyy1rSW77-4">
          <mxGeometry relative="1" as="geometry" />
        </mxCell>
        <mxCell id="kmDP1EbydoE8uJEdHsap-2" value="Aluga" style="rhombus;whiteSpace=wrap;html=1;" vertex="1" parent="1">
          <mxGeometry x="400" y="352.5" width="60" height="55" as="geometry" />
        </mxCell>
        <mxCell id="kmDP1EbydoE8uJEdHsap-4" value="1" style="text;html=1;align=center;verticalAlign=middle;resizable=0;points=[];autosize=1;strokeColor=none;fillColor=none;" vertex="1" parent="1">
          <mxGeometry x="350" y="352.5" width="30" height="30" as="geometry" />
        </mxCell>
        <mxCell id="kmDP1EbydoE8uJEdHsap-6" value="N" style="text;html=1;align=center;verticalAlign=middle;resizable=0;points=[];autosize=1;strokeColor=none;fillColor=none;" vertex="1" parent="1">
          <mxGeometry x="430" y="300" width="30" height="30" as="geometry" />
        </mxCell>
        <mxCell id="kmDP1EbydoE8uJEdHsap-7" value="Nome" style="ellipse;whiteSpace=wrap;html=1;" vertex="1" parent="1">
          <mxGeometry x="130" y="337.5" width="80" height="30" as="geometry" />
        </mxCell>
        <mxCell id="kmDP1EbydoE8uJEdHsap-10" style="edgeStyle=orthogonalEdgeStyle;rounded=0;orthogonalLoop=1;jettySize=auto;html=1;endArrow=none;endFill=0;" edge="1" parent="1" source="kmDP1EbydoE8uJEdHsap-8">
          <mxGeometry relative="1" as="geometry">
            <mxPoint x="230" y="380" as="targetPoint" />
          </mxGeometry>
        </mxCell>
        <mxCell id="kmDP1EbydoE8uJEdHsap-8" value="CPF" style="ellipse;whiteSpace=wrap;html=1;" vertex="1" parent="1">
          <mxGeometry x="130" y="390" width="80" height="30" as="geometry" />
        </mxCell>
      </root>
    </mxGraphModel>
  </diagram>
  <diagram id="ZEDLb7sQXqVnIS_tcTav" name="Página-4">
    <mxGraphModel dx="978" dy="591" grid="1" gridSize="10" guides="1" tooltips="1" connect="1" arrows="1" fold="1" page="1" pageScale="1" pageWidth="827" pageHeight="1169" math="0" shadow="0">
      <root>
        <mxCell id="0" />
        <mxCell id="1" parent="0" />
        <mxCell id="eD-atZhKTF-U186p_TU5-1" value="Uma clínica veterinária deseja cadastrar os pets que são atendidos em seu local.&#xa;&#xa;&#xa;- a clínica contém um endereço;&#xa;- os pets deverão ter nome, data de nascimento, tipo de pet;&#xa;- os pets deverão ter raça;&#xa;- os pets deverão ter donos;&#xa;- a clínica deseja cadastrar seus veterinários e todo atendimento de pet será feito por um veterinário;" style="text;whiteSpace=wrap;" vertex="1" parent="1">
          <mxGeometry x="134" y="80" width="560" height="150" as="geometry" />
        </mxCell>
        <mxCell id="eD-atZhKTF-U186p_TU5-4" style="edgeStyle=orthogonalEdgeStyle;rounded=0;orthogonalLoop=1;jettySize=auto;html=1;entryX=0.5;entryY=1;entryDx=0;entryDy=0;endArrow=none;endFill=0;" edge="1" parent="1" source="eD-atZhKTF-U186p_TU5-2" target="eD-atZhKTF-U186p_TU5-3">
          <mxGeometry relative="1" as="geometry" />
        </mxCell>
        <mxCell id="eD-atZhKTF-U186p_TU5-2" value="Clinica" style="rounded=0;whiteSpace=wrap;html=1;" vertex="1" parent="1">
          <mxGeometry x="60" y="360" width="106" height="40" as="geometry" />
        </mxCell>
        <mxCell id="eD-atZhKTF-U186p_TU5-3" value="Endereço" style="ellipse;whiteSpace=wrap;html=1;" vertex="1" parent="1">
          <mxGeometry x="73" y="296.25" width="80" height="40" as="geometry" />
        </mxCell>
        <mxCell id="eD-atZhKTF-U186p_TU5-10" style="edgeStyle=orthogonalEdgeStyle;rounded=0;orthogonalLoop=1;jettySize=auto;html=1;entryX=0;entryY=0.5;entryDx=0;entryDy=0;endArrow=none;endFill=0;" edge="1" parent="1" source="eD-atZhKTF-U186p_TU5-6" target="eD-atZhKTF-U186p_TU5-7">
          <mxGeometry relative="1" as="geometry" />
        </mxCell>
        <mxCell id="eD-atZhKTF-U186p_TU5-11" style="edgeStyle=orthogonalEdgeStyle;rounded=0;orthogonalLoop=1;jettySize=auto;html=1;entryX=0;entryY=0.5;entryDx=0;entryDy=0;endArrow=none;endFill=0;" edge="1" parent="1" source="eD-atZhKTF-U186p_TU5-6" target="eD-atZhKTF-U186p_TU5-8">
          <mxGeometry relative="1" as="geometry" />
        </mxCell>
        <mxCell id="eD-atZhKTF-U186p_TU5-6" value="Pets" style="rounded=0;whiteSpace=wrap;html=1;" vertex="1" parent="1">
          <mxGeometry x="540" y="360" width="106" height="40" as="geometry" />
        </mxCell>
        <mxCell id="eD-atZhKTF-U186p_TU5-7" value="Nome" style="ellipse;whiteSpace=wrap;html=1;" vertex="1" parent="1">
          <mxGeometry x="690" y="290" width="80" height="40" as="geometry" />
        </mxCell>
        <mxCell id="eD-atZhKTF-U186p_TU5-8" value="Data Nasc." style="ellipse;whiteSpace=wrap;html=1;" vertex="1" parent="1">
          <mxGeometry x="690" y="340" width="80" height="40" as="geometry" />
        </mxCell>
        <mxCell id="eD-atZhKTF-U186p_TU5-12" style="edgeStyle=orthogonalEdgeStyle;rounded=0;orthogonalLoop=1;jettySize=auto;html=1;entryX=1;entryY=0.5;entryDx=0;entryDy=0;endArrow=none;endFill=0;" edge="1" parent="1" source="eD-atZhKTF-U186p_TU5-9" target="eD-atZhKTF-U186p_TU5-6">
          <mxGeometry relative="1" as="geometry" />
        </mxCell>
        <mxCell id="eD-atZhKTF-U186p_TU5-9" value="Tipo" style="ellipse;whiteSpace=wrap;html=1;" vertex="1" parent="1">
          <mxGeometry x="690" y="390" width="80" height="40" as="geometry" />
        </mxCell>
        <mxCell id="eD-atZhKTF-U186p_TU5-15" style="edgeStyle=orthogonalEdgeStyle;rounded=0;orthogonalLoop=1;jettySize=auto;html=1;entryX=0.5;entryY=1;entryDx=0;entryDy=0;endArrow=none;endFill=0;" edge="1" parent="1" source="eD-atZhKTF-U186p_TU5-14" target="eD-atZhKTF-U186p_TU5-6">
          <mxGeometry relative="1" as="geometry" />
        </mxCell>
        <mxCell id="eD-atZhKTF-U186p_TU5-14" value="Possui" style="rhombus;whiteSpace=wrap;html=1;" vertex="1" parent="1">
          <mxGeometry x="568" y="420" width="50" height="50" as="geometry" />
        </mxCell>
        <mxCell id="eD-atZhKTF-U186p_TU5-20" style="edgeStyle=orthogonalEdgeStyle;rounded=0;orthogonalLoop=1;jettySize=auto;html=1;endArrow=none;endFill=0;" edge="1" parent="1" source="eD-atZhKTF-U186p_TU5-17" target="eD-atZhKTF-U186p_TU5-14">
          <mxGeometry relative="1" as="geometry" />
        </mxCell>
        <mxCell id="eD-atZhKTF-U186p_TU5-17" value="Dono" style="rounded=0;whiteSpace=wrap;html=1;" vertex="1" parent="1">
          <mxGeometry x="540" y="500" width="106" height="40" as="geometry" />
        </mxCell>
        <mxCell id="eD-atZhKTF-U186p_TU5-22" style="edgeStyle=orthogonalEdgeStyle;rounded=0;orthogonalLoop=1;jettySize=auto;html=1;entryX=1;entryY=0.5;entryDx=0;entryDy=0;endArrow=none;endFill=0;" edge="1" parent="1" source="eD-atZhKTF-U186p_TU5-21" target="eD-atZhKTF-U186p_TU5-6">
          <mxGeometry relative="1" as="geometry" />
        </mxCell>
        <mxCell id="eD-atZhKTF-U186p_TU5-21" value="Raça" style="ellipse;whiteSpace=wrap;html=1;" vertex="1" parent="1">
          <mxGeometry x="690" y="440" width="80" height="40" as="geometry" />
        </mxCell>
        <mxCell id="eD-atZhKTF-U186p_TU5-23" value="N" style="text;html=1;align=center;verticalAlign=middle;resizable=0;points=[];autosize=1;strokeColor=none;fillColor=none;" vertex="1" parent="1">
          <mxGeometry x="565" y="395" width="30" height="30" as="geometry" />
        </mxCell>
        <mxCell id="eD-atZhKTF-U186p_TU5-24" value="N" style="text;html=1;align=center;verticalAlign=middle;resizable=0;points=[];autosize=1;strokeColor=none;fillColor=none;" vertex="1" parent="1">
          <mxGeometry x="565" y="470" width="30" height="30" as="geometry" />
        </mxCell>
        <mxCell id="eD-atZhKTF-U186p_TU5-26" style="edgeStyle=orthogonalEdgeStyle;rounded=0;orthogonalLoop=1;jettySize=auto;html=1;entryX=1;entryY=0.5;entryDx=0;entryDy=0;endArrow=none;endFill=0;" edge="1" parent="1" source="eD-atZhKTF-U186p_TU5-25" target="eD-atZhKTF-U186p_TU5-2">
          <mxGeometry relative="1" as="geometry" />
        </mxCell>
        <mxCell id="eD-atZhKTF-U186p_TU5-25" value="Cadastra" style="rhombus;whiteSpace=wrap;html=1;" vertex="1" parent="1">
          <mxGeometry x="195" y="352.5" width="66" height="55" as="geometry" />
        </mxCell>
        <mxCell id="eD-atZhKTF-U186p_TU5-30" value="1" style="text;html=1;align=center;verticalAlign=middle;resizable=0;points=[];autosize=1;strokeColor=none;fillColor=none;" vertex="1" parent="1">
          <mxGeometry x="165" y="348.75" width="30" height="30" as="geometry" />
        </mxCell>
        <mxCell id="eD-atZhKTF-U186p_TU5-35" style="edgeStyle=orthogonalEdgeStyle;rounded=0;orthogonalLoop=1;jettySize=auto;html=1;entryX=1;entryY=0.5;entryDx=0;entryDy=0;endArrow=none;endFill=0;" edge="1" parent="1" source="eD-atZhKTF-U186p_TU5-34" target="eD-atZhKTF-U186p_TU5-25">
          <mxGeometry relative="1" as="geometry" />
        </mxCell>
        <mxCell id="eD-atZhKTF-U186p_TU5-34" value="Veterinario" style="rounded=0;whiteSpace=wrap;html=1;" vertex="1" parent="1">
          <mxGeometry x="290" y="360" width="106" height="40" as="geometry" />
        </mxCell>
        <mxCell id="eD-atZhKTF-U186p_TU5-36" value="N" style="text;html=1;align=center;verticalAlign=middle;resizable=0;points=[];autosize=1;strokeColor=none;fillColor=none;" vertex="1" parent="1">
          <mxGeometry x="260" y="348.75" width="30" height="30" as="geometry" />
        </mxCell>
        <mxCell id="eD-atZhKTF-U186p_TU5-38" style="edgeStyle=orthogonalEdgeStyle;rounded=0;orthogonalLoop=1;jettySize=auto;html=1;entryX=0;entryY=0.5;entryDx=0;entryDy=0;endArrow=none;endFill=0;" edge="1" parent="1" source="eD-atZhKTF-U186p_TU5-37" target="eD-atZhKTF-U186p_TU5-6">
          <mxGeometry relative="1" as="geometry" />
        </mxCell>
        <mxCell id="eD-atZhKTF-U186p_TU5-39" style="edgeStyle=orthogonalEdgeStyle;rounded=0;orthogonalLoop=1;jettySize=auto;html=1;entryX=1;entryY=0.5;entryDx=0;entryDy=0;endArrow=none;endFill=0;" edge="1" parent="1" source="eD-atZhKTF-U186p_TU5-37" target="eD-atZhKTF-U186p_TU5-34">
          <mxGeometry relative="1" as="geometry" />
        </mxCell>
        <mxCell id="eD-atZhKTF-U186p_TU5-37" value="Atende" style="rhombus;whiteSpace=wrap;html=1;" vertex="1" parent="1">
          <mxGeometry x="440" y="352.5" width="66" height="55" as="geometry" />
        </mxCell>
        <mxCell id="eD-atZhKTF-U186p_TU5-40" value="1" style="text;html=1;align=center;verticalAlign=middle;resizable=0;points=[];autosize=1;strokeColor=none;fillColor=none;" vertex="1" parent="1">
          <mxGeometry x="396" y="352.5" width="30" height="30" as="geometry" />
        </mxCell>
        <mxCell id="eD-atZhKTF-U186p_TU5-41" value="N" style="text;html=1;align=center;verticalAlign=middle;resizable=0;points=[];autosize=1;strokeColor=none;fillColor=none;" vertex="1" parent="1">
          <mxGeometry x="510" y="352.5" width="30" height="30" as="geometry" />
        </mxCell>
      </root>
    </mxGraphModel>
  </diagram>
  <diagram id="wNRJlGXe6f8zipkwT_aN" name="Página-5">
    <mxGraphModel dx="1750" dy="957" grid="1" gridSize="10" guides="1" tooltips="1" connect="1" arrows="1" fold="1" page="1" pageScale="1" pageWidth="827" pageHeight="1169" math="0" shadow="0">
      <root>
        <mxCell id="0" />
        <mxCell id="1" parent="0" />
        <mxCell id="1AEKh2ERlbHVWbr6Yiyw-1" value="A Optus é uma empresa no ramo musical que deseja realizar o gerenciamento dos lançamentos de novos cds de seus artistas. Cada álbum lançado poderá conter mais de um estilo vinculado (ex.: Indie e Folk).&#xa;É importante que você crie também uma estratégia para que os usuários possuam acesso à plataforma.&#xa;Os usuários deverão conter nome, email, senha e o tipo de permissão (eles podem ser do tipo administrador ou comum).&#xa;&#xa;&#xa;Observações:&#xa;Os Artistas deverão possuir somente nome.&#xa;Estilos: nome.&#xa;Albuns: titulo, data de lançamento, localizacao, quantidade de minutos, se o álbum está ativo para visualização, a quem pertence (somente um artista por álbum) e quais os estilos vinculados." style="text;whiteSpace=wrap;" vertex="1" parent="1">
          <mxGeometry x="132" y="60" width="560" height="230" as="geometry" />
        </mxCell>
        <mxCell id="Vvstz-jqvjnnL8lP9eRq-26" value="" style="edgeStyle=orthogonalEdgeStyle;rounded=0;orthogonalLoop=1;jettySize=auto;html=1;endArrow=none;endFill=0;" edge="1" parent="1" source="Vvstz-jqvjnnL8lP9eRq-1" target="Vvstz-jqvjnnL8lP9eRq-18">
          <mxGeometry relative="1" as="geometry" />
        </mxCell>
        <mxCell id="Vvstz-jqvjnnL8lP9eRq-28" value="" style="edgeStyle=orthogonalEdgeStyle;rounded=0;orthogonalLoop=1;jettySize=auto;html=1;endArrow=none;endFill=0;" edge="1" parent="1" source="Vvstz-jqvjnnL8lP9eRq-1" target="Vvstz-jqvjnnL8lP9eRq-27">
          <mxGeometry relative="1" as="geometry" />
        </mxCell>
        <mxCell id="q5DketpzbBh6v0tL59qt-33" style="edgeStyle=orthogonalEdgeStyle;rounded=0;orthogonalLoop=1;jettySize=auto;html=1;entryX=0.5;entryY=1;entryDx=0;entryDy=0;endArrow=none;endFill=0;" edge="1" parent="1" source="Vvstz-jqvjnnL8lP9eRq-1" target="q5DketpzbBh6v0tL59qt-32">
          <mxGeometry relative="1" as="geometry">
            <Array as="points">
              <mxPoint x="121" y="370" />
              <mxPoint x="121" y="370" />
            </Array>
          </mxGeometry>
        </mxCell>
        <mxCell id="Vvstz-jqvjnnL8lP9eRq-1" value="Empresa" style="rounded=0;whiteSpace=wrap;html=1;" vertex="1" parent="1">
          <mxGeometry x="63" y="380" width="106" height="40" as="geometry" />
        </mxCell>
        <mxCell id="Vvstz-jqvjnnL8lP9eRq-23" value="" style="edgeStyle=orthogonalEdgeStyle;rounded=0;orthogonalLoop=1;jettySize=auto;html=1;endArrow=none;endFill=0;" edge="1" parent="1" source="Vvstz-jqvjnnL8lP9eRq-2" target="Vvstz-jqvjnnL8lP9eRq-19">
          <mxGeometry relative="1" as="geometry" />
        </mxCell>
        <mxCell id="q5DketpzbBh6v0tL59qt-14" style="edgeStyle=orthogonalEdgeStyle;rounded=0;orthogonalLoop=1;jettySize=auto;html=1;entryX=0.5;entryY=1;entryDx=0;entryDy=0;endArrow=none;endFill=0;" edge="1" parent="1" source="Vvstz-jqvjnnL8lP9eRq-2" target="q5DketpzbBh6v0tL59qt-8">
          <mxGeometry relative="1" as="geometry" />
        </mxCell>
        <mxCell id="q5DketpzbBh6v0tL59qt-15" style="edgeStyle=orthogonalEdgeStyle;rounded=0;orthogonalLoop=1;jettySize=auto;html=1;exitX=1;exitY=0;exitDx=0;exitDy=0;entryX=0;entryY=0.5;entryDx=0;entryDy=0;endArrow=none;endFill=0;" edge="1" parent="1" source="Vvstz-jqvjnnL8lP9eRq-2" target="q5DketpzbBh6v0tL59qt-6">
          <mxGeometry relative="1" as="geometry">
            <Array as="points">
              <mxPoint x="627" y="400" />
              <mxPoint x="643" y="400" />
              <mxPoint x="643" y="340" />
            </Array>
          </mxGeometry>
        </mxCell>
        <mxCell id="q5DketpzbBh6v0tL59qt-16" style="edgeStyle=orthogonalEdgeStyle;rounded=0;orthogonalLoop=1;jettySize=auto;html=1;entryX=0;entryY=0.5;entryDx=0;entryDy=0;endArrow=none;endFill=0;" edge="1" parent="1" source="Vvstz-jqvjnnL8lP9eRq-2" target="q5DketpzbBh6v0tL59qt-7">
          <mxGeometry relative="1" as="geometry">
            <Array as="points">
              <mxPoint x="643" y="400" />
              <mxPoint x="643" y="382" />
            </Array>
          </mxGeometry>
        </mxCell>
        <mxCell id="Vvstz-jqvjnnL8lP9eRq-2" value="Álbum" style="rounded=0;whiteSpace=wrap;html=1;" vertex="1" parent="1">
          <mxGeometry x="526.5" y="380" width="100" height="40" as="geometry" />
        </mxCell>
        <mxCell id="q5DketpzbBh6v0tL59qt-5" value="" style="edgeStyle=orthogonalEdgeStyle;rounded=0;orthogonalLoop=1;jettySize=auto;html=1;endArrow=none;endFill=0;" edge="1" parent="1" source="Vvstz-jqvjnnL8lP9eRq-3" target="q5DketpzbBh6v0tL59qt-4">
          <mxGeometry relative="1" as="geometry" />
        </mxCell>
        <mxCell id="Vvstz-jqvjnnL8lP9eRq-3" value="Estilo" style="rounded=0;whiteSpace=wrap;html=1;" vertex="1" parent="1">
          <mxGeometry x="526.5" y="530" width="100" height="40" as="geometry" />
        </mxCell>
        <mxCell id="Vvstz-jqvjnnL8lP9eRq-32" value="" style="edgeStyle=orthogonalEdgeStyle;rounded=0;orthogonalLoop=1;jettySize=auto;html=1;endArrow=none;endFill=0;" edge="1" parent="1" source="Vvstz-jqvjnnL8lP9eRq-4" target="Vvstz-jqvjnnL8lP9eRq-30">
          <mxGeometry relative="1" as="geometry" />
        </mxCell>
        <mxCell id="Vvstz-jqvjnnL8lP9eRq-4" value="Usuários" style="rounded=0;whiteSpace=wrap;html=1;" vertex="1" parent="1">
          <mxGeometry x="337" y="550" width="100" height="40" as="geometry" />
        </mxCell>
        <mxCell id="Vvstz-jqvjnnL8lP9eRq-25" value="" style="edgeStyle=orthogonalEdgeStyle;rounded=0;orthogonalLoop=1;jettySize=auto;html=1;endArrow=none;endFill=0;" edge="1" parent="1" source="Vvstz-jqvjnnL8lP9eRq-5" target="Vvstz-jqvjnnL8lP9eRq-18">
          <mxGeometry relative="1" as="geometry" />
        </mxCell>
        <mxCell id="q5DketpzbBh6v0tL59qt-3" value="" style="edgeStyle=orthogonalEdgeStyle;rounded=0;orthogonalLoop=1;jettySize=auto;html=1;endArrow=none;endFill=0;" edge="1" parent="1" source="Vvstz-jqvjnnL8lP9eRq-5" target="q5DketpzbBh6v0tL59qt-2">
          <mxGeometry relative="1" as="geometry" />
        </mxCell>
        <mxCell id="Vvstz-jqvjnnL8lP9eRq-5" value="Artistas" style="rounded=0;whiteSpace=wrap;html=1;" vertex="1" parent="1">
          <mxGeometry x="297" y="380" width="100" height="40" as="geometry" />
        </mxCell>
        <mxCell id="Vvstz-jqvjnnL8lP9eRq-7" value="Plataforma" style="rounded=0;whiteSpace=wrap;html=1;" vertex="1" parent="1">
          <mxGeometry x="66" y="550" width="100" height="40" as="geometry" />
        </mxCell>
        <mxCell id="Vvstz-jqvjnnL8lP9eRq-18" value="Possui" style="rhombus;whiteSpace=wrap;html=1;" vertex="1" parent="1">
          <mxGeometry x="203" y="370" width="60" height="60" as="geometry" />
        </mxCell>
        <mxCell id="Vvstz-jqvjnnL8lP9eRq-24" value="" style="edgeStyle=orthogonalEdgeStyle;rounded=0;orthogonalLoop=1;jettySize=auto;html=1;endArrow=none;endFill=0;" edge="1" parent="1" source="Vvstz-jqvjnnL8lP9eRq-19" target="Vvstz-jqvjnnL8lP9eRq-5">
          <mxGeometry relative="1" as="geometry" />
        </mxCell>
        <mxCell id="Vvstz-jqvjnnL8lP9eRq-19" value="Possui" style="rhombus;whiteSpace=wrap;html=1;" vertex="1" parent="1">
          <mxGeometry x="433" y="370" width="60" height="60" as="geometry" />
        </mxCell>
        <mxCell id="Vvstz-jqvjnnL8lP9eRq-21" value="" style="edgeStyle=orthogonalEdgeStyle;rounded=0;orthogonalLoop=1;jettySize=auto;html=1;endArrow=none;endFill=0;" edge="1" parent="1" source="Vvstz-jqvjnnL8lP9eRq-20" target="Vvstz-jqvjnnL8lP9eRq-2">
          <mxGeometry relative="1" as="geometry" />
        </mxCell>
        <mxCell id="Vvstz-jqvjnnL8lP9eRq-22" value="" style="edgeStyle=orthogonalEdgeStyle;rounded=0;orthogonalLoop=1;jettySize=auto;html=1;endArrow=none;endFill=0;" edge="1" parent="1" source="Vvstz-jqvjnnL8lP9eRq-20" target="Vvstz-jqvjnnL8lP9eRq-3">
          <mxGeometry relative="1" as="geometry" />
        </mxCell>
        <mxCell id="Vvstz-jqvjnnL8lP9eRq-20" value="Possui" style="rhombus;whiteSpace=wrap;html=1;" vertex="1" parent="1">
          <mxGeometry x="546.5" y="450" width="60" height="60" as="geometry" />
        </mxCell>
        <mxCell id="Vvstz-jqvjnnL8lP9eRq-29" value="" style="edgeStyle=orthogonalEdgeStyle;rounded=0;orthogonalLoop=1;jettySize=auto;html=1;endArrow=none;endFill=0;" edge="1" parent="1" source="Vvstz-jqvjnnL8lP9eRq-27" target="Vvstz-jqvjnnL8lP9eRq-7">
          <mxGeometry relative="1" as="geometry" />
        </mxCell>
        <mxCell id="Vvstz-jqvjnnL8lP9eRq-27" value="Lança cds" style="rhombus;whiteSpace=wrap;html=1;" vertex="1" parent="1">
          <mxGeometry x="77.5" y="440" width="77" height="70" as="geometry" />
        </mxCell>
        <mxCell id="Vvstz-jqvjnnL8lP9eRq-33" style="edgeStyle=orthogonalEdgeStyle;rounded=0;orthogonalLoop=1;jettySize=auto;html=1;entryX=1;entryY=0.5;entryDx=0;entryDy=0;endArrow=none;endFill=0;" edge="1" parent="1" source="Vvstz-jqvjnnL8lP9eRq-30" target="Vvstz-jqvjnnL8lP9eRq-7">
          <mxGeometry relative="1" as="geometry" />
        </mxCell>
        <mxCell id="Vvstz-jqvjnnL8lP9eRq-30" value="Acessa" style="rhombus;whiteSpace=wrap;html=1;" vertex="1" parent="1">
          <mxGeometry x="214" y="540" width="60" height="60" as="geometry" />
        </mxCell>
        <mxCell id="Vvstz-jqvjnnL8lP9eRq-34" value="1" style="text;html=1;align=center;verticalAlign=middle;resizable=0;points=[];autosize=1;strokeColor=none;fillColor=none;" vertex="1" parent="1">
          <mxGeometry x="169" y="370" width="30" height="30" as="geometry" />
        </mxCell>
        <mxCell id="Vvstz-jqvjnnL8lP9eRq-35" value="N" style="text;html=1;align=center;verticalAlign=middle;resizable=0;points=[];autosize=1;strokeColor=none;fillColor=none;" vertex="1" parent="1">
          <mxGeometry x="267" y="370" width="30" height="30" as="geometry" />
        </mxCell>
        <mxCell id="Vvstz-jqvjnnL8lP9eRq-36" value="1" style="text;html=1;align=center;verticalAlign=middle;resizable=0;points=[];autosize=1;strokeColor=none;fillColor=none;" vertex="1" parent="1">
          <mxGeometry x="397" y="370" width="30" height="30" as="geometry" />
        </mxCell>
        <mxCell id="Vvstz-jqvjnnL8lP9eRq-39" value="1" style="text;html=1;align=center;verticalAlign=middle;resizable=0;points=[];autosize=1;strokeColor=none;fillColor=none;" vertex="1" parent="1">
          <mxGeometry x="503" y="370" width="30" height="30" as="geometry" />
        </mxCell>
        <mxCell id="Vvstz-jqvjnnL8lP9eRq-40" value="1" style="text;html=1;align=center;verticalAlign=middle;resizable=0;points=[];autosize=1;strokeColor=none;fillColor=none;" vertex="1" parent="1">
          <mxGeometry x="583" y="420" width="30" height="30" as="geometry" />
        </mxCell>
        <mxCell id="Vvstz-jqvjnnL8lP9eRq-41" value="N" style="text;html=1;align=center;verticalAlign=middle;resizable=0;points=[];autosize=1;strokeColor=none;fillColor=none;" vertex="1" parent="1">
          <mxGeometry x="583" y="500" width="30" height="30" as="geometry" />
        </mxCell>
        <mxCell id="1OHIvgyHjDyTU5Oyl0ty-1" value="1" style="text;html=1;align=center;verticalAlign=middle;resizable=0;points=[];autosize=1;strokeColor=none;fillColor=none;" vertex="1" parent="1">
          <mxGeometry x="86" y="420" width="30" height="30" as="geometry" />
        </mxCell>
        <mxCell id="1OHIvgyHjDyTU5Oyl0ty-3" value="N" style="text;html=1;align=center;verticalAlign=middle;resizable=0;points=[];autosize=1;strokeColor=none;fillColor=none;" vertex="1" parent="1">
          <mxGeometry x="86" y="500" width="30" height="30" as="geometry" />
        </mxCell>
        <mxCell id="1OHIvgyHjDyTU5Oyl0ty-4" value="1" style="text;html=1;align=center;verticalAlign=middle;resizable=0;points=[];autosize=1;strokeColor=none;fillColor=none;" vertex="1" parent="1">
          <mxGeometry x="307" y="540" width="30" height="30" as="geometry" />
        </mxCell>
        <mxCell id="1OHIvgyHjDyTU5Oyl0ty-5" value="1" style="text;html=1;align=center;verticalAlign=middle;resizable=0;points=[];autosize=1;strokeColor=none;fillColor=none;" vertex="1" parent="1">
          <mxGeometry x="166" y="540" width="30" height="30" as="geometry" />
        </mxCell>
        <mxCell id="q5DketpzbBh6v0tL59qt-2" value="Nome" style="ellipse;whiteSpace=wrap;html=1;rounded=0;" vertex="1" parent="1">
          <mxGeometry x="303.5" y="450" width="87" height="20" as="geometry" />
        </mxCell>
        <mxCell id="q5DketpzbBh6v0tL59qt-4" value="Nomes" style="ellipse;whiteSpace=wrap;html=1;rounded=0;" vertex="1" parent="1">
          <mxGeometry x="654" y="540" width="87" height="20" as="geometry" />
        </mxCell>
        <mxCell id="q5DketpzbBh6v0tL59qt-6" value="Titulo" style="ellipse;whiteSpace=wrap;html=1;rounded=0;" vertex="1" parent="1">
          <mxGeometry x="665.5" y="330" width="87" height="20" as="geometry" />
        </mxCell>
        <mxCell id="q5DketpzbBh6v0tL59qt-7" value="Quant. Minutos" style="ellipse;whiteSpace=wrap;html=1;rounded=0;" vertex="1" parent="1">
          <mxGeometry x="654" y="370" width="97" height="25" as="geometry" />
        </mxCell>
        <mxCell id="q5DketpzbBh6v0tL59qt-8" value="Localização" style="ellipse;whiteSpace=wrap;html=1;rounded=0;" vertex="1" parent="1">
          <mxGeometry x="533" y="330" width="87" height="20" as="geometry" />
        </mxCell>
        <mxCell id="q5DketpzbBh6v0tL59qt-17" style="edgeStyle=orthogonalEdgeStyle;rounded=0;orthogonalLoop=1;jettySize=auto;html=1;entryX=1;entryY=0.5;entryDx=0;entryDy=0;endArrow=none;endFill=0;" edge="1" parent="1" source="q5DketpzbBh6v0tL59qt-9" target="Vvstz-jqvjnnL8lP9eRq-2">
          <mxGeometry relative="1" as="geometry">
            <Array as="points">
              <mxPoint x="643" y="430" />
              <mxPoint x="643" y="400" />
            </Array>
          </mxGeometry>
        </mxCell>
        <mxCell id="q5DketpzbBh6v0tL59qt-9" value="Ativo ou não&lt;br&gt;para visualização" style="ellipse;whiteSpace=wrap;html=1;rounded=0;" vertex="1" parent="1">
          <mxGeometry x="654" y="410" width="110" height="40" as="geometry" />
        </mxCell>
        <mxCell id="q5DketpzbBh6v0tL59qt-18" style="edgeStyle=orthogonalEdgeStyle;rounded=0;orthogonalLoop=1;jettySize=auto;html=1;endArrow=none;endFill=0;" edge="1" parent="1" source="q5DketpzbBh6v0tL59qt-10">
          <mxGeometry relative="1" as="geometry">
            <mxPoint x="633" y="400" as="targetPoint" />
            <Array as="points">
              <mxPoint x="643" y="475" />
              <mxPoint x="643" y="400" />
            </Array>
          </mxGeometry>
        </mxCell>
        <mxCell id="q5DketpzbBh6v0tL59qt-10" value="Data lanç." style="ellipse;whiteSpace=wrap;html=1;rounded=0;" vertex="1" parent="1">
          <mxGeometry x="659" y="465" width="87" height="20" as="geometry" />
        </mxCell>
        <mxCell id="q5DketpzbBh6v0tL59qt-26" style="edgeStyle=orthogonalEdgeStyle;rounded=0;orthogonalLoop=1;jettySize=auto;html=1;entryX=0.5;entryY=1;entryDx=0;entryDy=0;endArrow=none;endFill=0;" edge="1" parent="1" source="q5DketpzbBh6v0tL59qt-19" target="Vvstz-jqvjnnL8lP9eRq-4">
          <mxGeometry relative="1" as="geometry" />
        </mxCell>
        <mxCell id="q5DketpzbBh6v0tL59qt-19" value="Nome" style="ellipse;whiteSpace=wrap;html=1;rounded=0;" vertex="1" parent="1">
          <mxGeometry x="263" y="645" width="87" height="20" as="geometry" />
        </mxCell>
        <mxCell id="q5DketpzbBh6v0tL59qt-31" style="edgeStyle=orthogonalEdgeStyle;rounded=0;orthogonalLoop=1;jettySize=auto;html=1;entryX=0.5;entryY=1;entryDx=0;entryDy=0;endArrow=none;endFill=0;" edge="1" parent="1" source="q5DketpzbBh6v0tL59qt-20" target="Vvstz-jqvjnnL8lP9eRq-4">
          <mxGeometry relative="1" as="geometry" />
        </mxCell>
        <mxCell id="q5DketpzbBh6v0tL59qt-20" value="Comum" style="ellipse;whiteSpace=wrap;html=1;rounded=0;" vertex="1" parent="1">
          <mxGeometry x="419.5" y="645" width="87" height="20" as="geometry" />
        </mxCell>
        <mxCell id="q5DketpzbBh6v0tL59qt-27" style="edgeStyle=orthogonalEdgeStyle;rounded=0;orthogonalLoop=1;jettySize=auto;html=1;entryX=0.5;entryY=1;entryDx=0;entryDy=0;endArrow=none;endFill=0;" edge="1" parent="1" source="q5DketpzbBh6v0tL59qt-21" target="Vvstz-jqvjnnL8lP9eRq-4">
          <mxGeometry relative="1" as="geometry" />
        </mxCell>
        <mxCell id="q5DketpzbBh6v0tL59qt-21" value="Administrador" style="ellipse;whiteSpace=wrap;html=1;rounded=0;" vertex="1" parent="1">
          <mxGeometry x="343.5" y="680" width="87" height="20" as="geometry" />
        </mxCell>
        <mxCell id="q5DketpzbBh6v0tL59qt-30" style="edgeStyle=orthogonalEdgeStyle;rounded=0;orthogonalLoop=1;jettySize=auto;html=1;exitX=0.5;exitY=1;exitDx=0;exitDy=0;" edge="1" parent="1" source="q5DketpzbBh6v0tL59qt-20" target="q5DketpzbBh6v0tL59qt-20">
          <mxGeometry relative="1" as="geometry" />
        </mxCell>
        <mxCell id="q5DketpzbBh6v0tL59qt-32" value="Nome" style="ellipse;whiteSpace=wrap;html=1;rounded=0;" vertex="1" parent="1">
          <mxGeometry x="77.5" y="330" width="87" height="20" as="geometry" />
        </mxCell>
      </root>
    </mxGraphModel>
  </diagram>
  <diagram id="-jQGUA6H5duTGzq-d30z" name="Página-6">
    <mxGraphModel dx="1500" dy="820" grid="1" gridSize="10" guides="1" tooltips="1" connect="1" arrows="1" fold="1" page="1" pageScale="1" pageWidth="827" pageHeight="1169" math="0" shadow="0">
      <root>
        <mxCell id="0" />
        <mxCell id="1" parent="0" />
        <mxCell id="l8hDJSkosnxVkTuG8GuQ-1" value="E-Commerce - SenaiShop&#xa;&#xa;&#xa;Uma Loja possui várias categorias&#xa;Uma categoria possui subcategorias&#xa;Um produto possui uma subcategoria&#xa;Um cliente efetua um pedido&#xa;Um pedido pode ter 1 ou vários produtos" style="text;whiteSpace=wrap;" vertex="1" parent="1">
          <mxGeometry x="289" y="30" width="250" height="140" as="geometry" />
        </mxCell>
        <mxCell id="cALnQwvAcbqHhYZMyxGB-4" value="" style="edgeStyle=orthogonalEdgeStyle;rounded=0;orthogonalLoop=1;jettySize=auto;html=1;endArrow=none;endFill=0;" edge="1" parent="1" source="cALnQwvAcbqHhYZMyxGB-1" target="cALnQwvAcbqHhYZMyxGB-3">
          <mxGeometry relative="1" as="geometry" />
        </mxCell>
        <mxCell id="cALnQwvAcbqHhYZMyxGB-1" value="Loja" style="rounded=0;whiteSpace=wrap;html=1;" vertex="1" parent="1">
          <mxGeometry x="214" y="220" width="100" height="40" as="geometry" />
        </mxCell>
        <mxCell id="cALnQwvAcbqHhYZMyxGB-2" value="1" style="text;html=1;align=center;verticalAlign=middle;resizable=0;points=[];autosize=1;strokeColor=none;fillColor=none;" vertex="1" parent="1">
          <mxGeometry x="314" y="210" width="30" height="30" as="geometry" />
        </mxCell>
        <mxCell id="cALnQwvAcbqHhYZMyxGB-8" value="" style="edgeStyle=orthogonalEdgeStyle;rounded=0;orthogonalLoop=1;jettySize=auto;html=1;endArrow=none;endFill=0;" edge="1" parent="1" source="cALnQwvAcbqHhYZMyxGB-3" target="cALnQwvAcbqHhYZMyxGB-7">
          <mxGeometry relative="1" as="geometry" />
        </mxCell>
        <mxCell id="cALnQwvAcbqHhYZMyxGB-3" value="Possui" style="rhombus;whiteSpace=wrap;html=1;rounded=0;" vertex="1" parent="1">
          <mxGeometry x="354" y="210" width="60" height="60" as="geometry" />
        </mxCell>
        <mxCell id="cALnQwvAcbqHhYZMyxGB-7" value="Categorias" style="whiteSpace=wrap;html=1;rounded=0;" vertex="1" parent="1">
          <mxGeometry x="534" y="220" width="100" height="40" as="geometry" />
        </mxCell>
        <mxCell id="cALnQwvAcbqHhYZMyxGB-9" value="N" style="text;html=1;align=center;verticalAlign=middle;resizable=0;points=[];autosize=1;strokeColor=none;fillColor=none;" vertex="1" parent="1">
          <mxGeometry x="434" y="210" width="30" height="30" as="geometry" />
        </mxCell>
        <mxCell id="cALnQwvAcbqHhYZMyxGB-11" value="" style="edgeStyle=orthogonalEdgeStyle;rounded=0;orthogonalLoop=1;jettySize=auto;html=1;endArrow=none;endFill=0;" edge="1" parent="1" source="cALnQwvAcbqHhYZMyxGB-10" target="cALnQwvAcbqHhYZMyxGB-7">
          <mxGeometry relative="1" as="geometry" />
        </mxCell>
        <mxCell id="cALnQwvAcbqHhYZMyxGB-15" value="" style="edgeStyle=orthogonalEdgeStyle;rounded=0;orthogonalLoop=1;jettySize=auto;html=1;endArrow=none;endFill=0;" edge="1" parent="1" source="cALnQwvAcbqHhYZMyxGB-10" target="cALnQwvAcbqHhYZMyxGB-14">
          <mxGeometry relative="1" as="geometry" />
        </mxCell>
        <mxCell id="cALnQwvAcbqHhYZMyxGB-10" value="Possui" style="rhombus;whiteSpace=wrap;html=1;rounded=0;" vertex="1" parent="1">
          <mxGeometry x="554" y="290" width="60" height="60" as="geometry" />
        </mxCell>
        <mxCell id="cALnQwvAcbqHhYZMyxGB-27" style="edgeStyle=orthogonalEdgeStyle;rounded=0;orthogonalLoop=1;jettySize=auto;html=1;endArrow=none;endFill=0;entryX=0.5;entryY=0;entryDx=0;entryDy=0;" edge="1" parent="1" source="cALnQwvAcbqHhYZMyxGB-14" target="cALnQwvAcbqHhYZMyxGB-18">
          <mxGeometry relative="1" as="geometry">
            <mxPoint x="604" y="505" as="targetPoint" />
          </mxGeometry>
        </mxCell>
        <mxCell id="cALnQwvAcbqHhYZMyxGB-14" value="Subcategorias" style="whiteSpace=wrap;html=1;rounded=0;" vertex="1" parent="1">
          <mxGeometry x="534" y="400" width="100" height="40" as="geometry" />
        </mxCell>
        <mxCell id="cALnQwvAcbqHhYZMyxGB-16" value="1" style="text;html=1;align=center;verticalAlign=middle;resizable=0;points=[];autosize=1;strokeColor=none;fillColor=none;" vertex="1" parent="1">
          <mxGeometry x="534" y="260" width="30" height="30" as="geometry" />
        </mxCell>
        <mxCell id="cALnQwvAcbqHhYZMyxGB-17" value="N" style="text;html=1;align=center;verticalAlign=middle;resizable=0;points=[];autosize=1;strokeColor=none;fillColor=none;" vertex="1" parent="1">
          <mxGeometry x="544" y="370" width="30" height="30" as="geometry" />
        </mxCell>
        <mxCell id="cALnQwvAcbqHhYZMyxGB-22" value="" style="edgeStyle=orthogonalEdgeStyle;rounded=0;orthogonalLoop=1;jettySize=auto;html=1;endArrow=none;endFill=0;" edge="1" parent="1" source="cALnQwvAcbqHhYZMyxGB-18" target="cALnQwvAcbqHhYZMyxGB-20">
          <mxGeometry relative="1" as="geometry" />
        </mxCell>
        <mxCell id="cALnQwvAcbqHhYZMyxGB-18" value="Possui" style="rhombus;whiteSpace=wrap;html=1;rounded=0;" vertex="1" parent="1">
          <mxGeometry x="554" y="510" width="60" height="60" as="geometry" />
        </mxCell>
        <mxCell id="cALnQwvAcbqHhYZMyxGB-20" value="Produto" style="rounded=0;whiteSpace=wrap;html=1;" vertex="1" parent="1">
          <mxGeometry x="384" y="520" width="100" height="40" as="geometry" />
        </mxCell>
        <mxCell id="cALnQwvAcbqHhYZMyxGB-24" value="1" style="text;html=1;align=center;verticalAlign=middle;resizable=0;points=[];autosize=1;strokeColor=none;fillColor=none;" vertex="1" parent="1">
          <mxGeometry x="231.5" y="420" width="30" height="30" as="geometry" />
        </mxCell>
        <mxCell id="cALnQwvAcbqHhYZMyxGB-25" value="Efetua" style="rhombus;whiteSpace=wrap;html=1;rounded=0;" vertex="1" parent="1">
          <mxGeometry x="211.5" y="370" width="50" height="45" as="geometry" />
        </mxCell>
        <mxCell id="cALnQwvAcbqHhYZMyxGB-30" style="edgeStyle=orthogonalEdgeStyle;rounded=0;orthogonalLoop=1;jettySize=auto;html=1;entryX=0.5;entryY=0;entryDx=0;entryDy=0;endArrow=none;endFill=0;" edge="1" parent="1" source="cALnQwvAcbqHhYZMyxGB-29" target="cALnQwvAcbqHhYZMyxGB-25">
          <mxGeometry relative="1" as="geometry" />
        </mxCell>
        <mxCell id="cALnQwvAcbqHhYZMyxGB-29" value="Cliente" style="rounded=0;whiteSpace=wrap;html=1;" vertex="1" parent="1">
          <mxGeometry x="194" y="310" width="85" height="30" as="geometry" />
        </mxCell>
        <mxCell id="cALnQwvAcbqHhYZMyxGB-31" value="1" style="text;html=1;align=center;verticalAlign=middle;resizable=0;points=[];autosize=1;strokeColor=none;fillColor=none;" vertex="1" parent="1">
          <mxGeometry x="231.5" y="340" width="30" height="30" as="geometry" />
        </mxCell>
        <mxCell id="cALnQwvAcbqHhYZMyxGB-37" style="edgeStyle=orthogonalEdgeStyle;rounded=0;orthogonalLoop=1;jettySize=auto;html=1;entryX=0.5;entryY=1;entryDx=0;entryDy=0;endArrow=none;endFill=0;" edge="1" parent="1" source="cALnQwvAcbqHhYZMyxGB-34" target="cALnQwvAcbqHhYZMyxGB-25">
          <mxGeometry relative="1" as="geometry" />
        </mxCell>
        <mxCell id="cALnQwvAcbqHhYZMyxGB-34" value="Pedido" style="rounded=0;whiteSpace=wrap;html=1;" vertex="1" parent="1">
          <mxGeometry x="194" y="450" width="85" height="30" as="geometry" />
        </mxCell>
        <mxCell id="cALnQwvAcbqHhYZMyxGB-39" style="edgeStyle=orthogonalEdgeStyle;rounded=0;orthogonalLoop=1;jettySize=auto;html=1;entryX=0.5;entryY=1;entryDx=0;entryDy=0;endArrow=none;endFill=0;" edge="1" parent="1" source="cALnQwvAcbqHhYZMyxGB-38" target="cALnQwvAcbqHhYZMyxGB-34">
          <mxGeometry relative="1" as="geometry" />
        </mxCell>
        <mxCell id="cALnQwvAcbqHhYZMyxGB-46" style="edgeStyle=orthogonalEdgeStyle;rounded=0;orthogonalLoop=1;jettySize=auto;html=1;endArrow=none;endFill=0;" edge="1" parent="1" source="cALnQwvAcbqHhYZMyxGB-38" target="cALnQwvAcbqHhYZMyxGB-20">
          <mxGeometry relative="1" as="geometry" />
        </mxCell>
        <mxCell id="cALnQwvAcbqHhYZMyxGB-38" value="Possui" style="rhombus;whiteSpace=wrap;html=1;rounded=0;" vertex="1" parent="1">
          <mxGeometry x="206.5" y="510" width="60" height="60" as="geometry" />
        </mxCell>
        <mxCell id="cALnQwvAcbqHhYZMyxGB-41" value="1" style="text;html=1;align=center;verticalAlign=middle;resizable=0;points=[];autosize=1;strokeColor=none;fillColor=none;" vertex="1" parent="1">
          <mxGeometry x="236.5" y="480" width="30" height="30" as="geometry" />
        </mxCell>
        <mxCell id="cALnQwvAcbqHhYZMyxGB-42" value="N" style="text;html=1;align=center;verticalAlign=middle;resizable=0;points=[];autosize=1;strokeColor=none;fillColor=none;" vertex="1" parent="1">
          <mxGeometry x="354" y="510" width="30" height="30" as="geometry" />
        </mxCell>
        <mxCell id="cALnQwvAcbqHhYZMyxGB-43" value="1" style="text;html=1;align=center;verticalAlign=middle;resizable=0;points=[];autosize=1;strokeColor=none;fillColor=none;" vertex="1" parent="1">
          <mxGeometry x="574" y="440" width="30" height="30" as="geometry" />
        </mxCell>
        <mxCell id="cALnQwvAcbqHhYZMyxGB-44" value="1" style="text;html=1;align=center;verticalAlign=middle;resizable=0;points=[];autosize=1;strokeColor=none;fillColor=none;" vertex="1" parent="1">
          <mxGeometry x="484" y="510" width="30" height="30" as="geometry" />
        </mxCell>
      </root>
    </mxGraphModel>
  </diagram>
</mxfile>
